<?xml version="1.0" encoding="UTF-8"?>
<svg version="1.1" xmlns="http://www.w3.org/2000/svg" width="512" height="512">
<path d="M0 0 C5.43665403 2.21555126 10.41012295 5.36535306 15.40429688 8.42138672 C19.07209042 10.65200683 22.78830078 12.79621967 26.50244141 14.94848633 C29.56121699 16.72301463 32.61320157 18.50877811 35.6640625 20.296875 C42.05281992 24.03634589 48.46116076 27.74125034 54.875 31.4375 C55.95458984 32.05971436 57.03417969 32.68192871 58.14648438 33.32299805 C60.3368252 34.58511517 62.52725502 35.84707785 64.71777344 37.10888672 C70.14659942 40.23680148 75.57319281 43.36858448 81 46.5 C83.16665583 47.75001879 85.3333225 49.00001878 87.5 50.25 C109.16666667 62.75 130.83333333 75.25 152.5 87.75 C154.11116699 88.67945435 154.11116699 88.67945435 155.75488281 89.62768555 C157.90542543 90.86847033 160.05581792 92.10951535 162.20605469 93.35083008 C167.26377813 96.27019474 172.32294493 99.18696209 177.38757324 102.09432983 C179.76923502 103.46174766 182.1500302 104.83067039 184.53076172 106.19970703 C186.20326021 107.16064553 187.87700336 108.11941672 189.55078125 109.078125 C192.37643334 110.7035001 195.1892531 112.34904331 198 114 C198.63357422 114.35143066 199.26714844 114.70286133 199.91992188 115.06494141 C203.99975245 117.4728564 206.25640874 120.67678665 208 125 C208.54678605 128.18484762 208.54102703 131.30069811 208.50793457 134.52636719 C208.51729451 135.93675577 208.51729451 135.93675577 208.52684355 137.37563705 C208.54275792 140.51630719 208.5301751 143.65619954 208.51757812 146.796875 C208.52299992 149.05253552 208.53012289 151.3081925 208.53881836 153.56384277 C208.55704765 159.68362619 208.54998561 165.80313975 208.53730202 171.92292786 C208.52717242 178.32850876 208.53656759 184.73406662 208.54284668 191.13964844 C208.55058922 202.58547867 208.5381614 214.0311595 208.51780933 225.47696447 C208.49993906 235.84798501 208.50304341 246.21882644 208.52148438 256.58984375 C208.54290604 268.64276332 208.55085025 280.69554766 208.53903532 292.74849319 C208.53280035 299.1253006 208.53196501 305.50198471 208.54518127 311.87878418 C208.55673877 317.8739703 208.54871538 323.86881829 208.52560425 329.8639679 C208.52031669 332.06378111 208.52183169 334.2636228 208.53065491 336.46342468 C208.54159175 339.46721112 208.52786853 342.46991526 208.50793457 345.47363281 C208.5213189 346.77826288 208.5213189 346.77826288 208.53497362 348.10924911 C208.46069114 353.88323117 207.34138628 357.25638646 204 362 C201.22924805 364.16772461 201.22924805 364.16772461 198.07421875 365.96484375 C197.50491135 366.29564438 196.93560394 366.62644501 196.3490448 366.9672699 C194.57456718 367.99399126 192.78795559 368.99698249 191 370 C189.92314941 370.62406738 188.84629883 371.24813477 187.73681641 371.89111328 C184.43914522 373.80044939 181.12769051 375.6837655 177.8125 377.5625 C175.34443247 378.96636027 172.87734636 380.3719422 170.41015625 381.77734375 C169.79046967 382.13006348 169.17078308 382.4827832 168.53231812 382.84619141 C162.25932594 386.41793187 156.0022335 390.01705151 149.75 393.625 C148.67967529 394.24262207 147.60935059 394.86024414 146.5065918 395.49658203 C139.36652118 399.62166722 132.24301818 403.77450926 125.125 407.9375 C115.85494485 413.35911495 106.5416835 418.70204857 97.21154785 424.01922607 C88.0871716 429.22045129 78.99867226 434.48027878 69.93310547 439.78344727 C59.43408508 445.92308802 48.89601868 451.99441585 38.35693359 458.06494141 C34.86807297 460.07604754 31.38105172 462.09030995 27.89453125 464.10546875 C26.71794788 464.78525786 25.54135295 465.46502695 24.36474609 466.14477539 C22.14731622 467.42598166 19.93017441 468.70768667 17.71337891 469.98999023 C15.71826784 471.14221541 13.71877283 472.28689291 11.71435547 473.42285156 C10.00810061 474.41425347 8.32488184 475.4476157 6.68017578 476.53808594 C0.6011431 480.42528431 -4.87237233 481.27520888 -12 480 C-16.20937537 478.40066321 -19.91996249 476.22750349 -23.75 473.875 C-24.82709229 473.24263428 -25.90418457 472.61026855 -27.01391602 471.95874023 C-29.25479446 470.6404131 -31.48925721 469.31112203 -33.71728516 467.97119141 C-37.78550406 465.52832368 -41.88881668 463.14918961 -45.99462891 460.77026367 C-48.97148321 459.04277936 -51.94148937 457.30401155 -54.91015625 455.5625 C-61.21570419 451.8678669 -67.54294436 448.21147319 -73.875 444.5625 C-74.95515381 443.93996338 -76.03530762 443.31742676 -77.14819336 442.67602539 C-79.33796334 441.41423174 -81.52782355 440.15259466 -83.71777344 438.89111328 C-89.14659942 435.76319852 -94.57319281 432.63141552 -100 429.5 C-102.16665583 428.24998121 -104.3333225 426.99998122 -106.5 425.75 C-119.5 418.25 -132.5 410.75 -145.5 403.25 C-146.57266113 402.63116943 -147.64532227 402.01233887 -148.75048828 401.37475586 C-150.91557071 400.12564482 -153.08060982 398.87645871 -155.24560547 397.62719727 C-161.78121844 393.85612204 -168.31845713 390.08788539 -174.85693359 386.32177734 C-178.08867926 384.45844154 -181.31789126 382.59077316 -184.546875 380.72265625 C-188.9629592 378.16906028 -193.39158868 375.6389738 -197.828125 373.12109375 C-200.01049819 371.87253831 -202.1927928 370.62384553 -204.375 369.375 C-205.38578613 368.8070874 -206.39657227 368.2391748 -207.43798828 367.65405273 C-213.2472859 364.31323141 -217.7867756 361.63967319 -220 355 C-220.10292728 351.97739967 -220.14780333 348.97758739 -220.14717102 345.95465088 C-220.15084771 345.01780952 -220.1545244 344.08096817 -220.1583125 343.11573768 C-220.16936377 339.96289515 -220.17319562 336.81008557 -220.17700195 333.65722656 C-220.18326547 331.40215957 -220.18991217 329.14709362 -220.19691467 326.89202881 C-220.21433375 320.75557211 -220.22487875 314.6191232 -220.2331202 308.4826479 C-220.23826804 304.650456 -220.24434385 300.81826654 -220.25063133 296.98607635 C-220.26750133 286.37454135 -220.28213651 275.7630085 -220.28938007 265.15146255 C-220.29128994 262.39817554 -220.29321028 259.64488854 -220.29516602 256.89160156 C-220.29564976 256.20729284 -220.2961335 255.52298412 -220.2966319 254.81793877 C-220.30493212 243.73271391 -220.33026942 232.64759695 -220.36274669 221.56241921 C-220.39582374 210.17966922 -220.41349665 198.79699338 -220.41702431 187.41418815 C-220.41937737 181.02387903 -220.42837134 174.63374051 -220.45348549 168.24347687 C-220.47672926 162.23196975 -220.48101416 156.220746 -220.47072411 150.20920563 C-220.47022775 148.00293029 -220.47657735 145.79664117 -220.49028015 143.59040833 C-220.50794487 140.57769261 -220.50091915 137.56599977 -220.48774719 134.55328369 C-220.49871644 133.68080183 -220.50968568 132.80831997 -220.52098733 131.90939927 C-220.4599363 126.12318726 -219.35111719 122.75199563 -216 118 C-213.22924805 115.83227539 -213.22924805 115.83227539 -210.07421875 114.03515625 C-209.50491135 113.70435562 -208.93560394 113.37355499 -208.3490448 113.0327301 C-206.57456718 112.00600874 -204.78795559 111.00301751 -203 110 C-201.38472412 109.06389893 -201.38472412 109.06389893 -199.73681641 108.10888672 C-196.43914478 106.19955036 -193.12770457 104.31621082 -189.8125 102.4375 C-187.34182403 101.03234523 -184.87211894 99.62548727 -182.40234375 98.21875 C-181.78224426 97.86582382 -181.16214478 97.51289764 -180.52325439 97.14927673 C-174.29361915 93.60215944 -168.0824978 90.02320336 -161.875 86.4375 C-160.81128174 85.82318115 -159.74756348 85.2088623 -158.65161133 84.57592773 C-156.50690413 83.33707777 -154.3622912 82.09806459 -152.21777344 80.85888672 C-146.81329351 77.73675393 -141.40649893 74.61863474 -136 71.5 C-134.92878906 70.88189453 -133.85757813 70.26378906 -132.75390625 69.62695312 C-127.31353925 66.48777626 -121.87237045 63.35000371 -116.4296875 60.21484375 C-105.97793801 54.19252671 -95.53700452 48.15330663 -85.125 42.0625 C-75.86073029 36.64413838 -66.55375681 31.30349276 -57.22866821 25.99084473 C-47.74993707 20.58960238 -38.30952177 15.1253062 -28.90039062 9.60351562 C-26.27078428 8.06227931 -23.63575281 6.53069245 -21 5 C-19.77277222 4.2726062 -19.77277222 4.2726062 -18.52075195 3.53051758 C-12.07759008 -0.2053549 -7.48199538 -1.69930064 0 0 Z M-11.40625 37.9296875 C-12.53361572 38.55488281 -13.66098145 39.18007813 -14.82250977 39.82421875 C-16.04846817 40.50758234 -17.27429535 41.19118138 -18.5 41.875 C-19.11801483 42.21901855 -19.73602966 42.56303711 -20.37277222 42.91748047 C-28.82676434 47.62503989 -37.22074941 52.41967174 -45.5390625 57.36328125 C-51.14245773 60.68875759 -56.79154792 63.93499024 -62.4375 67.1875 C-63.54633545 67.82631104 -64.6551709 68.46512207 -65.79760742 69.12329102 C-68.06957726 70.43194957 -70.34163201 71.74046073 -72.61376953 73.04882812 C-75.89880622 74.94169137 -79.18216436 76.83742707 -82.46484375 78.734375 C-94.25526364 85.54645787 -106.06342383 92.325932 -117.89263916 99.0703125 C-127.20081477 104.37912599 -136.46623484 109.75825144 -145.71337891 115.17260742 C-153.75701146 119.87580863 -161.85610145 124.47295051 -170 129 C-170 129.66 -170 130.32 -170 131 C-169.33170166 131.3717334 -168.66340332 131.7434668 -167.97485352 132.12646484 C-145.34054631 144.72804791 -145.34054631 144.72804791 -134.59033203 151.10791016 C-128.23666111 154.87534512 -121.83917979 158.56483634 -115.4375 162.25 C-106.94343701 167.14145324 -98.4623443 172.05387301 -90 177 C-78.46301093 183.74123597 -66.89148131 190.42166975 -55.31298828 197.09130859 C-50.83604759 199.67058069 -46.36007279 202.25152112 -41.88525391 204.83447266 C-39.69248039 206.09858 -37.49817323 207.36003123 -35.30224609 208.61865234 C-30.27889423 211.50221476 -25.28646072 214.41780899 -20.35546875 217.45703125 C-19.48784912 217.98393555 -18.62022949 218.51083984 -17.72631836 219.05371094 C-16.12681761 220.02826626 -14.53689548 221.01880177 -12.95922852 222.02832031 C-12.25596436 222.45338867 -11.5527002 222.87845703 -10.828125 223.31640625 C-10.2290332 223.69224854 -9.62994141 224.06809082 -9.01269531 224.45532227 C-5.1167213 225.50965487 -1.77444845 223.39840374 1.65527344 221.6340332 C2.54762695 221.11156006 3.43998047 220.58908691 4.359375 220.05078125 C5.37902344 219.4578125 6.39867187 218.86484375 7.44921875 218.25390625 C8.53847656 217.61324219 9.62773437 216.97257813 10.75 216.3125 C11.90720972 215.63743361 13.06476857 214.96296538 14.22265625 214.2890625 C16.62570582 212.88984195 19.0272392 211.48807065 21.42773438 210.08447266 C26.93786779 206.86550654 32.47004876 203.6847534 38 200.5 C40.1693849 199.24889568 42.33865543 197.99759303 44.5078125 196.74609375 C45.58063477 196.12718262 46.65345703 195.50827148 47.75878906 194.87060547 C50.98301005 193.00980544 54.20644874 191.14765709 57.4296875 189.28515625 C69.23629484 182.46497363 81.06027 175.6767674 92.90472412 168.92263794 C101.92733769 163.77574788 110.9128996 158.56838939 119.87402344 153.31518555 C125.44568107 150.05478589 131.03611225 146.83032753 136.6484375 143.640625 C137.29282776 143.27408813 137.93721802 142.90755127 138.60113525 142.52990723 C141.76152977 140.7329078 144.92404339 138.93980204 148.08984375 137.15234375 C149.22292969 136.50910156 150.35601562 135.86585938 151.5234375 135.203125 C152.53325684 134.63239258 153.54307617 134.06166016 154.58349609 133.47363281 C157.06890773 132.0881287 157.06890773 132.0881287 159 130 C158.33170166 129.6282666 157.66340332 129.2565332 156.97485352 128.87353516 C134.34054631 116.27195209 134.34054631 116.27195209 123.59033203 109.89208984 C117.23666111 106.12465488 110.83917979 102.43516366 104.4375 98.75 C95.94343701 93.85854676 87.4623443 88.94612699 79 84 C70.72225582 79.16318976 62.43055873 74.35139695 54.125 69.5625 C53.04911621 68.94205811 51.97323242 68.32161621 50.86474609 67.68237305 C45.33942095 64.49741364 39.81158619 61.31687499 34.28125 58.140625 C23.0799896 51.70114649 11.91284783 45.22088065 0.87548828 38.50317383 C0.11091309 38.03935303 -0.65366211 37.57553223 -1.44140625 37.09765625 C-2.44216187 36.48676147 -2.44216187 36.48676147 -3.46313477 35.86352539 C-6.55773658 34.12474753 -8.48260673 36.30724138 -11.40625 37.9296875 Z M-187 159 C-187.30378582 182.46087833 -187.53297543 205.92146166 -187.67355824 229.38391113 C-187.74057133 240.27825697 -187.83191564 251.17138032 -187.98071289 262.06494141 C-188.11035598 271.56074494 -188.19417162 281.05566323 -188.22315043 290.55232716 C-188.24008968 295.58056554 -188.27983733 300.60627165 -188.37449074 305.63369751 C-188.46291776 310.3688974 -188.48992007 315.10053015 -188.47039986 319.83647728 C-188.47396882 321.57165127 -188.49973662 323.30694763 -188.54967117 325.04140663 C-188.69377572 330.30625027 -188.63795487 334.96089627 -187 340 C-183.06256666 343.86900162 -179.06400037 345.7845352 -174 348 C-171.94865441 349.16653192 -169.90853965 350.35332618 -167.88671875 351.5703125 C-165.82131788 352.75695996 -163.75488119 353.94180605 -161.6875 355.125 C-159.39945164 356.43960695 -157.11164486 357.75462414 -154.82421875 359.0703125 C-153.68259277 359.72676758 -152.5409668 360.38322266 -151.36474609 361.05957031 C-146.23154172 364.0198597 -141.11528695 367.00889006 -136 370 C-124.45295352 376.74743359 -112.87097646 383.43339506 -101.28222656 390.10888672 C-94.77270411 393.85946399 -88.2660522 397.61501989 -81.75927734 401.37036133 C-76.29465337 404.52385162 -70.82852098 407.6746704 -65.359375 410.8203125 C-63.15616335 412.08839113 -60.95303763 413.35661906 -58.75 414.625 C-57.68458984 415.23802979 -56.61917969 415.85105957 -55.52148438 416.48266602 C-50.17600591 419.565307 -44.84820041 422.67398363 -39.546875 425.83203125 C-38.52754883 426.43901855 -37.50822266 427.04600586 -36.45800781 427.67138672 C-34.52780456 428.82383722 -32.59995149 429.98023579 -30.67480469 431.14111328 C-29.82305664 431.65013184 -28.97130859 432.15915039 -28.09375 432.68359375 C-26.97516602 433.35733032 -26.97516602 433.35733032 -25.83398438 434.04467773 C-24.04901717 435.15399362 -24.04901717 435.15399362 -22 435 C-22 375.27 -22 315.54 -22 254 C-30.58 249.05 -39.16 244.1 -48 239 C-61 231.5 -61 231.5 -67.4921875 227.75390625 C-71.85065388 225.23930564 -76.21012191 222.72645339 -80.5703125 220.21484375 C-91.02206199 214.19252671 -101.46299548 208.15330663 -111.875 202.0625 C-121.13991101 196.6437633 -130.44729078 191.30229789 -139.77334595 185.98983765 C-149.19505205 180.62197604 -158.57794681 175.19048454 -167.92382812 169.69140625 C-172.52409929 166.99231781 -177.14700358 164.35370506 -181.83374023 161.80712891 C-182.80649399 161.27809967 -183.77924774 160.74907043 -184.78147888 160.20401001 C-185.51359085 159.80668671 -186.24570282 159.4093634 -187 159 Z M169.12890625 161.75390625 C168.09314453 162.35332031 167.05738281 162.95273438 165.99023438 163.5703125 C164.85908203 164.22773438 163.72792969 164.88515625 162.5625 165.5625 C161.38229328 166.24632132 160.20195274 166.92991171 159.02148438 167.61328125 C156.56474459 169.03572203 154.10858885 170.4591637 151.65283203 171.88330078 C146.10726779 175.09818694 140.55321758 178.29835893 135 181.5 C132.83590781 182.74864646 130.67184543 183.99734458 128.5078125 185.24609375 C124.14934612 187.76069436 119.78987809 190.27354661 115.4296875 192.78515625 C104.93767906 198.83055159 94.45518324 204.89110219 84 211 C70.1946917 219.06635482 56.34053152 227.04751199 42.48339844 235.02441406 C40.12653709 236.38115258 37.76993076 237.73833221 35.41357422 239.09594727 C33.20993131 240.36546119 31.00586045 241.63423268 28.80126953 242.90209961 C27.79435059 243.4822583 26.78743164 244.06241699 25.75 244.66015625 C24.87859375 245.16168213 24.0071875 245.66320801 23.109375 246.17993164 C22.08328125 246.7805542 21.0571875 247.38117676 20 248 C18.78663688 248.43667165 18.78663688 248.43667165 17.54876137 248.88216496 C14.37915461 250.24692642 12.37545155 251.47519882 10 254 C8.4808862 259.73753834 8.73469667 265.39799025 8.86474609 271.29638672 C8.86756799 273.08049866 8.86598123 274.86462222 8.86032104 276.64872742 C8.85745312 281.48601451 8.91621468 286.32081907 8.98606062 291.15752935 C9.04860051 296.21427645 9.05444986 301.27108136 9.0663147 306.32815552 C9.09738877 315.9014403 9.17943862 325.47358228 9.27980959 335.04636395 C9.39160796 345.9457712 9.44657184 356.84523323 9.49676394 367.74507117 C9.60127308 390.16401422 9.77714953 412.58194307 10 435 C13.53064211 433.61572638 16.80355979 432.09020174 20.11328125 430.234375 C21.10126709 429.68144775 22.08925293 429.12852051 23.10717773 428.55883789 C24.69381226 427.66346313 24.69381226 427.66346313 26.3125 426.75 C27.42117432 426.12665771 28.52984863 425.50331543 29.67211914 424.86108398 C39.13940877 419.52126695 48.53299965 414.05876975 57.91015625 408.5625 C64.21570419 404.8678669 70.54294436 401.21147319 76.875 397.5625 C77.95515381 396.93996338 79.03530762 396.31742676 80.14819336 395.67602539 C82.33796334 394.41423174 84.52782355 393.15259466 86.71777344 391.89111328 C92.14659942 388.76319852 97.57319281 385.63141552 103 382.5 C105.16665583 381.24998121 107.3333225 379.99998122 109.5 378.75 C111.10875 377.821875 111.10875 377.821875 112.75 376.875 C116 375 119.25 373.125 122.5 371.25 C123.57403076 370.63036377 124.64806152 370.01072754 125.75463867 369.37231445 C127.90583224 368.13124746 130.05703655 366.89019907 132.20825195 365.64916992 C137.25962999 362.73501656 142.3109031 359.82068182 147.36178589 356.90567017 C149.15066918 355.87326522 150.93958717 354.84092044 152.72851562 353.80859375 C154.97337636 352.51314052 157.2181719 351.2175743 159.46289062 349.921875 C160.47931641 349.33535156 161.49574219 348.74882812 162.54296875 348.14453125 C163.43008545 347.63253174 164.31720215 347.12053223 165.23120117 346.59301758 C168.48352348 344.72180666 171.74217509 342.86161423 175 341 C175 280.94 175 220.88 175 159 C172.93260459 159 170.84166342 160.76014354 169.12890625 161.75390625 Z " fill="#000000" transform="translate(262,16)"/>
</svg>
